<svg id="Layer_1" data-name="Layer 1" xmlns="http://www.w3.org/2000/svg" viewBox="0 0 274.38 274.38"><title>qip</title><path d="M38.37,52.14H6.2A5.36,5.36,0,0,0,.84,57.5v118a5.37,5.37,0,0,0,5.36,5.37H38.37a5.36,5.36,0,0,0,5.36-5.37V57.5A5.36,5.36,0,0,0,38.37,52.14Zm57.19,0H63.39A5.36,5.36,0,0,0,58,57.5V218.35a5.36,5.36,0,0,0,5.36,5.36H95.56a5.36,5.36,0,0,0,5.36-5.36V57.5A5.36,5.36,0,0,0,95.56,52.14Z" fill="#fff"/><path d="M230.76,58.1v118a5.37,5.37,0,0,0,5.37,5.36H268.3a5.36,5.36,0,0,0,5.36-5.36V58.1a5.36,5.36,0,0,0-5.36-5.36H236.13A5.37,5.37,0,0,0,230.76,58.1Zm-57.19,0V219a5.37,5.37,0,0,0,5.37,5.36h32.17a5.36,5.36,0,0,0,5.36-5.36V58.1a5.36,5.36,0,0,0-5.36-5.36H178.94A5.37,5.37,0,0,0,173.57,58.1Z" fill="#fff"/><path d="M153.33,70H121.16a5.36,5.36,0,0,0-5.36,5.36v118a5.37,5.37,0,0,0,5.36,5.37h32.17a5.36,5.36,0,0,0,5.36-5.37V75.33A5.36,5.36,0,0,0,153.33,70Z" fill="#fff"/></svg>