<svg width="253" height="32" viewBox="0 0 253 32" fill="none" xmlns="http://www.w3.org/2000/svg">
<path d="M17.667 0C18.2191 0.000177514 18.667 0.447825 18.667 1V31C18.667 31.5522 18.2191 31.9998 17.667 32H11.667C11.1147 32 10.667 31.5523 10.667 31V1C10.667 0.447715 11.1147 0 11.667 0H17.667ZM7 0C7.55228 2.57702e-07 8 0.447715 8 1V23C8 23.5523 7.55228 24 7 24H1C0.447715 24 0 23.5523 0 23V1C2.57704e-07 0.447716 0.447715 6.44256e-08 1 0H7Z" fill="white"/>
<path d="M46.0907 29.7333V20.8693H45.6427C45.3867 21.3387 45.024 21.7973 44.5547 22.2453C44.0853 22.6933 43.4667 23.056 42.6987 23.3333C41.952 23.632 41.0347 23.7813 39.9467 23.7813C38.5813 23.7813 37.3333 23.4613 36.2027 22.8213C35.0933 22.1813 34.208 21.2533 33.5467 20.0373C32.8853 18.8213 32.5547 17.3813 32.5547 15.7173V15.3013C32.5547 13.616 32.8853 12.176 33.5467 10.9813C34.208 9.78668 35.104 8.86934 36.2347 8.22934C37.3653 7.56801 38.6027 7.23734 39.9467 7.23734C41.568 7.23734 42.8267 7.54668 43.7227 8.16534C44.6187 8.78401 45.28 9.48801 45.7067 10.2773H46.1547V7.68534H48.6187V29.7333H46.0907ZM40.6187 21.5413C42.24 21.5413 43.552 21.0293 44.5547 20.0053C45.5787 18.96 46.0907 17.5093 46.0907 15.6533V15.3653C46.0907 13.5093 45.5787 12.0693 44.5547 11.0453C43.552 10 42.24 9.47734 40.6187 9.47734C39.0187 9.47734 37.696 10 36.6507 11.0453C35.6267 12.0693 35.1147 13.5093 35.1147 15.3653V15.6533C35.1147 17.5093 35.6267 18.96 36.6507 20.0053C37.696 21.0293 39.0187 21.5413 40.6187 21.5413ZM58.6204 23.6213C57.4897 23.6213 56.4444 23.376 55.4844 22.8853C54.5457 22.3947 53.7991 21.6693 53.2444 20.7093C52.7111 19.728 52.4444 18.544 52.4444 17.1573V7.68534H54.9724V16.9653C54.9724 18.5227 55.3564 19.6533 56.1244 20.3573C56.9137 21.0613 57.9697 21.4133 59.2924 21.4133C60.7857 21.4133 62.0124 20.9227 62.9724 19.9413C63.9324 18.96 64.4124 17.4987 64.4124 15.5573V7.68534H66.9404V23.3333H64.4764V20.6773H64.0284C63.6871 21.424 63.1004 22.1067 62.2684 22.7253C61.4364 23.3227 60.2204 23.6213 58.6204 23.6213ZM79.6222 23.7813C78.0008 23.7813 76.7315 23.472 75.8142 22.8533C74.9182 22.2347 74.2675 21.5307 73.8622 20.7413H73.4142V23.3333H70.9502V0.933342H73.4782V10.1493H73.9262C74.1822 9.65868 74.5448 9.20001 75.0142 8.77334C75.4835 8.32534 76.0915 7.96268 76.8382 7.68534C77.6062 7.38668 78.5342 7.23734 79.6222 7.23734C80.9875 7.23734 82.2248 7.56801 83.3342 8.22934C84.4648 8.86934 85.3608 9.79734 86.0222 11.0133C86.6835 12.208 87.0142 13.6373 87.0142 15.3013V15.7173C87.0142 17.3813 86.6728 18.8213 85.9902 20.0373C85.3288 21.2533 84.4328 22.1813 83.3022 22.8213C82.1928 23.4613 80.9662 23.7813 79.6222 23.7813ZM78.9502 21.5413C80.5715 21.5413 81.8835 21.0293 82.8862 20.0053C83.9102 18.96 84.4222 17.5093 84.4222 15.6533V15.3653C84.4222 13.5093 83.9102 12.0693 82.8862 11.0453C81.8835 10 80.5715 9.47734 78.9502 9.47734C77.3502 9.47734 76.0275 10 74.9822 11.0453C73.9582 12.0693 73.4462 13.5093 73.4462 15.3653V15.6533C73.4462 17.5093 73.9582 18.96 74.9822 20.0053C76.0275 21.0293 77.3502 21.5413 78.9502 21.5413ZM90.2639 23.3333V7.68534H92.7919V23.3333H90.2639ZM91.5439 5.25334C90.9892 5.25334 90.5199 5.07201 90.1359 4.70934C89.7732 4.34668 89.5919 3.88801 89.5919 3.33334C89.5919 2.75734 89.7732 2.28801 90.1359 1.92534C90.5199 1.56268 90.9892 1.38134 91.5439 1.38134C92.0986 1.38134 92.5572 1.56268 92.9199 1.92534C93.2826 2.28801 93.4639 2.75734 93.4639 3.33334C93.4639 3.88801 93.2826 4.34668 92.9199 4.70934C92.5572 5.07201 92.0986 5.25334 91.5439 5.25334ZM104.028 23.7813C102.513 23.7813 101.148 23.4613 99.9317 22.8213C98.737 22.16 97.7877 21.2213 97.0837 20.0053C96.401 18.7893 96.0597 17.3493 96.0597 15.6853V15.3333C96.0597 13.648 96.401 12.208 97.0837 11.0133C97.7877 9.79734 98.737 8.86934 99.9317 8.22934C101.148 7.56801 102.513 7.23734 104.028 7.23734C105.521 7.23734 106.79 7.51468 107.836 8.06934C108.902 8.62401 109.734 9.36001 110.332 10.2773C110.95 11.1947 111.345 12.176 111.516 13.2213L109.052 13.7333C108.945 12.9653 108.689 12.2613 108.284 11.6213C107.9 10.9813 107.356 10.4693 106.652 10.0853C105.948 9.70134 105.084 9.50934 104.06 9.50934C103.014 9.50934 102.076 9.74401 101.244 10.2133C100.433 10.6827 99.7823 11.3547 99.2917 12.2293C98.8223 13.104 98.5877 14.1493 98.5877 15.3653V15.6533C98.5877 16.8693 98.8223 17.9147 99.2917 18.7893C99.7823 19.664 100.433 20.336 101.244 20.8053C102.076 21.2747 103.014 21.5093 104.06 21.5093C105.617 21.5093 106.801 21.104 107.612 20.2933C108.444 19.4827 108.956 18.48 109.148 17.2853L111.644 17.8293C111.409 18.8533 110.982 19.824 110.364 20.7413C109.745 21.6587 108.902 22.3947 107.836 22.9493C106.79 23.504 105.521 23.7813 104.028 23.7813Z" fill="white"/>
<path d="M121.323 23.3333V7.68534H123.851V23.3333H121.323ZM122.603 5.25334C122.048 5.25334 121.579 5.07201 121.195 4.70934C120.832 4.34668 120.651 3.88801 120.651 3.33334C120.651 2.75734 120.832 2.28801 121.195 1.92534C121.579 1.56268 122.048 1.38134 122.603 1.38134C123.157 1.38134 123.616 1.56268 123.979 1.92534C124.341 2.28801 124.523 2.75734 124.523 3.33334C124.523 3.88801 124.341 4.34668 123.979 4.70934C123.616 5.07201 123.157 5.25334 122.603 5.25334ZM135.086 23.7813C133.572 23.7813 132.206 23.4613 130.99 22.8213C129.796 22.16 128.846 21.2213 128.142 20.0053C127.46 18.7893 127.118 17.3493 127.118 15.6853V15.3333C127.118 13.648 127.46 12.208 128.142 11.0133C128.846 9.79734 129.796 8.86934 130.99 8.22934C132.206 7.56801 133.572 7.23734 135.086 7.23734C136.58 7.23734 137.849 7.51468 138.894 8.06934C139.961 8.62401 140.793 9.36001 141.39 10.2773C142.009 11.1947 142.404 12.176 142.574 13.2213L140.11 13.7333C140.004 12.9653 139.748 12.2613 139.342 11.6213C138.958 10.9813 138.414 10.4693 137.71 10.0853C137.006 9.70134 136.142 9.50934 135.118 9.50934C134.073 9.50934 133.134 9.74401 132.302 10.2133C131.492 10.6827 130.841 11.3547 130.35 12.2293C129.881 13.104 129.646 14.1493 129.646 15.3653V15.6533C129.646 16.8693 129.881 17.9147 130.35 18.7893C130.841 19.664 131.492 20.336 132.302 20.8053C133.134 21.2747 134.073 21.5093 135.118 21.5093C136.676 21.5093 137.86 21.104 138.67 20.2933C139.502 19.4827 140.014 18.48 140.206 17.2853L142.702 17.8293C142.468 18.8533 142.041 19.824 141.422 20.7413C140.804 21.6587 139.961 22.3947 138.894 22.9493C137.849 23.504 136.58 23.7813 135.086 23.7813ZM152.963 23.7813C151.385 23.7813 149.987 23.4507 148.771 22.7893C147.577 22.128 146.638 21.2 145.955 20.0053C145.294 18.7893 144.963 17.36 144.963 15.7173V15.3013C144.963 13.68 145.294 12.2613 145.955 11.0453C146.638 9.82934 147.577 8.89068 148.771 8.22934C149.987 7.56801 151.385 7.23734 152.963 7.23734C154.542 7.23734 155.929 7.56801 157.123 8.22934C158.339 8.89068 159.278 9.82934 159.939 11.0453C160.622 12.2613 160.963 13.68 160.963 15.3013V15.7173C160.963 17.36 160.622 18.7893 159.939 20.0053C159.278 21.2 158.339 22.128 157.123 22.7893C155.929 23.4507 154.542 23.7813 152.963 23.7813ZM152.963 21.5093C154.627 21.5093 155.95 20.9867 156.931 19.9413C157.934 18.8747 158.435 17.4453 158.435 15.6533V15.3653C158.435 13.5733 157.934 12.1547 156.931 11.1093C155.95 10.0427 154.627 9.50934 152.963 9.50934C151.321 9.50934 149.998 10.0427 148.995 11.1093C147.993 12.1547 147.491 13.5733 147.491 15.3653V15.6533C147.491 17.4453 147.993 18.8747 148.995 19.9413C149.998 20.9867 151.321 21.5093 152.963 21.5093ZM171.171 29.7333V7.68534H173.635V10.2773H174.083C174.489 9.48801 175.139 8.78401 176.035 8.16534C176.953 7.54668 178.222 7.23734 179.843 7.23734C181.187 7.23734 182.414 7.56801 183.523 8.22934C184.654 8.86934 185.55 9.78668 186.211 10.9813C186.894 12.176 187.235 13.616 187.235 15.3013V15.7173C187.235 17.3813 186.905 18.8213 186.243 20.0373C185.582 21.2533 184.686 22.1813 183.555 22.8213C182.446 23.4613 181.209 23.7813 179.843 23.7813C178.755 23.7813 177.827 23.632 177.059 23.3333C176.313 23.056 175.705 22.6933 175.235 22.2453C174.766 21.7973 174.403 21.3387 174.147 20.8693H173.699V29.7333H171.171ZM179.171 21.5413C180.793 21.5413 182.105 21.0293 183.107 20.0053C184.131 18.96 184.643 17.5093 184.643 15.6533V15.3653C184.643 13.5093 184.131 12.0693 183.107 11.0453C182.105 10 180.793 9.47734 179.171 9.47734C177.571 9.47734 176.249 10 175.203 11.0453C174.179 12.0693 173.667 13.5093 173.667 15.3653V15.6533C173.667 17.5093 174.179 18.96 175.203 20.0053C176.249 21.0293 177.571 21.5413 179.171 21.5413ZM197.717 23.7813C196.138 23.7813 194.741 23.4507 193.525 22.7893C192.33 22.128 191.392 21.2 190.709 20.0053C190.048 18.7893 189.717 17.36 189.717 15.7173V15.3013C189.717 13.68 190.048 12.2613 190.709 11.0453C191.392 9.82934 192.33 8.89068 193.525 8.22934C194.741 7.56801 196.138 7.23734 197.717 7.23734C199.296 7.23734 200.682 7.56801 201.877 8.22934C203.093 8.89068 204.032 9.82934 204.693 11.0453C205.376 12.2613 205.717 13.68 205.717 15.3013V15.7173C205.717 17.36 205.376 18.7893 204.693 20.0053C204.032 21.2 203.093 22.128 201.877 22.7893C200.682 23.4507 199.296 23.7813 197.717 23.7813ZM197.717 21.5093C199.381 21.5093 200.704 20.9867 201.685 19.9413C202.688 18.8747 203.189 17.4453 203.189 15.6533V15.3653C203.189 13.5733 202.688 12.1547 201.685 11.1093C200.704 10.0427 199.381 9.50934 197.717 9.50934C196.074 9.50934 194.752 10.0427 193.749 11.1093C192.746 12.1547 192.245 13.5733 192.245 15.3653V15.6533C192.245 17.4453 192.746 18.8747 193.749 19.9413C194.752 20.9867 196.074 21.5093 197.717 21.5093ZM208.986 23.3333V7.68534H211.45V9.60534H211.898C212.176 8.92268 212.602 8.42134 213.178 8.10134C213.754 7.78134 214.512 7.62134 215.45 7.62134H217.306V9.92534H215.29C214.16 9.92534 213.242 10.2453 212.538 10.8853C211.856 11.504 211.514 12.4747 211.514 13.7973V23.3333H208.986ZM225.529 23.3333C224.633 23.3333 223.94 23.088 223.449 22.5973C222.98 22.1067 222.745 21.4347 222.745 20.5813V9.89334H218.041V7.68534H222.745V2.11734H225.273V7.68534H230.393V9.89334H225.273V20.1973C225.273 20.8373 225.582 21.1573 226.201 21.1573H229.689V23.3333H225.529ZM237.914 23.7813C236.826 23.7813 235.834 23.5893 234.938 23.2053C234.042 22.8213 233.338 22.2667 232.826 21.5413C232.314 20.816 232.058 19.9307 232.058 18.8853C232.058 17.8187 232.314 16.944 232.826 16.2613C233.338 15.5573 234.042 15.0347 234.938 14.6933C235.834 14.3307 236.837 14.1493 237.946 14.1493H243.226V12.9973C243.226 11.888 242.895 11.0133 242.234 10.3733C241.594 9.73334 240.634 9.41334 239.354 9.41334C238.095 9.41334 237.114 9.72268 236.41 10.3413C235.706 10.9387 235.226 11.7493 234.97 12.7733L232.602 12.0053C232.858 11.1307 233.263 10.3413 233.818 9.63734C234.373 8.91201 235.109 8.33601 236.026 7.90934C236.965 7.46134 238.085 7.23734 239.386 7.23734C241.391 7.23734 242.949 7.76001 244.058 8.80534C245.167 9.82934 245.722 11.28 245.722 13.1573V20.2293C245.722 20.8693 246.021 21.1893 246.618 21.1893H248.058V23.3333H245.85C245.146 23.3333 244.581 23.1413 244.154 22.7573C243.727 22.352 243.514 21.8187 243.514 21.1573V20.9973H243.13C242.895 21.4027 242.575 21.8293 242.17 22.2773C241.786 22.704 241.253 23.056 240.57 23.3333C239.887 23.632 239.002 23.7813 237.914 23.7813ZM238.202 21.6053C239.695 21.6053 240.901 21.168 241.818 20.2933C242.757 19.3973 243.226 18.1493 243.226 16.5493V16.1973H238.042C237.039 16.1973 236.207 16.4213 235.546 16.8693C234.906 17.296 234.586 17.9467 234.586 18.8213C234.586 19.696 234.917 20.3787 235.578 20.8693C236.261 21.36 237.135 21.6053 238.202 21.6053ZM250.24 23.3333V0.933342H252.768V23.3333H250.24Z" fill="#61F0FE"/>
</svg>
