<svg 
    fill='#ffffff'
    id="Layer_1" 
    data-name="Layer 1" 
    xmlns="http://www.w3.org/2000/svg" 
    viewBox="0 0 1470.11 192.31">
    <title>qip</title>
    <path d="M461.76,101.25h-18v25.28h18c12.72,0,17.89-4.73,17.89-12.86S474.18,101.25,461.76,101.25Z" fill="none"/>
    <path d="M872.91,66.22c-15.68,0-28.54,11.53-28.54,29.86s12.86,30.16,28.54,30.16,28.53-11.83,28.53-30.16S888.58,66.22,872.91,66.22Z" fill="none"/>
    <path d="M1102.2,66.22c-15.67,0-28.53,11.53-28.53,29.86s12.86,30.16,28.53,30.16,28.54-11.83,28.54-30.16S1117.87,66.22,1102.2,66.22Z" fill="none"/>
    <path d="M1006.7,65.92H991.62V96.23h15.08c12.27,0,18.63-5.92,18.63-15.23S1019,65.92,1006.7,65.92Z" fill="none"/>
    <path d="M473.59,75.38c0-6.21-3.25-9.46-12.42-9.46H443.73V85h17.59C469.9,85,473.59,81.3,473.59,75.38Z" fill="none"/>
    <path d="M270.61,66.22c-15.67,0-28.54,11.53-28.54,29.86s12.87,30.16,28.54,30.16a26.15,26.15,0,0,0,9-1.48l-14.49-16h22.17l5.92,6.36c3.69-4.88,5.91-11.38,5.91-19.07C299.14,77.75,286.28,66.22,270.61,66.22Z" fill="none"/>
    <polygon points="1339.78 107.17 1360.78 107.17 1350.28 78.19 1339.78 107.17" fill="none"/>
    <path d="M1195.34,65.92h-15.08V92.53h15.08c12.27,0,18.63-5.17,18.63-13.3S1207.61,65.92,1195.34,65.92Z" fill="none"/>
    <path d="M317.62,96.23c0-27.8-21.14-47.76-47-47.76s-47,20-47,47.76,21.14,47.75,47,47.75a46.69,46.69,0,0,0,21.73-5.17l3.55,4h22.17L305.5,128.75C313,120.47,317.62,109.24,317.62,96.23Zm-24.39,18.92-5.92-6.36H265.14l14.49,16a26.15,26.15,0,0,1-9,1.48c-15.67,0-28.54-11.83-28.54-30.16s12.87-29.86,28.54-29.86,28.53,11.53,28.53,29.86C299.14,103.77,296.92,110.27,293.23,115.15Z"/>
    <path d="M394.94,98.3c0,21.73-8.57,28.68-22.77,28.68s-23.06-7-23.06-28.68V49.66H331.37V101.4C331.37,127.57,347,144,372,144s40.66-16.41,40.66-42.58V49.66H394.94Z"/>
    <path d="M484.53,91.5c5.18-3.55,7.54-9.32,7.54-17.89,0-13.6-11.23-24-28.83-24H426V142.8H462.5c22.33,0,35.63-10.5,35.63-29.13C498.13,103,493.7,95.64,484.53,91.5Zm-40.8-25.58h17.44c9.17,0,12.42,3.25,12.42,9.46,0,5.92-3.69,9.61-12.27,9.61H443.73Zm18,60.61h-18V101.25h18c12.42,0,17.89,4.29,17.89,12.42S474.48,126.53,461.76,126.53Z"/>
    <rect x="511.44" y="49.66" width="17.74" height="93.14"/>
    <path d="M589.5,126.24c-15.67,0-28.53-11.83-28.53-30.16s12.86-29.86,28.53-29.86c13.3,0,22.62,6.94,26.61,18.62h19.37c-3.7-22.32-21.14-36.37-46-36.37-25.87,0-47,20-47,47.76S563.63,144,589.5,144c23.65,0,43.91-14.78,46.27-37H616.55C613.89,118.85,603.54,126.24,589.5,126.24Z"/>
    <rect x="689.73" y="49.66" width="17.74" height="93.14"/>
    <path d="M767.79,126.24c-15.67,0-28.53-11.83-28.53-30.16s12.86-29.86,28.53-29.86c13.31,0,22.62,6.94,26.61,18.62h19.37c-3.7-22.32-21.14-36.37-46-36.37-25.87,0-47,20-47,47.76s21.14,47.75,47,47.75c23.66,0,43.91-14.78,46.28-37H794.85C792.18,118.85,781.84,126.24,767.79,126.24Z"/>
    <path d="M872.91,48.47c-25.88,0-47,20-47,47.76S847,144,872.91,144s47-20,47-47.75S898.78,48.47,872.91,48.47Zm0,77.77c-15.68,0-28.54-11.83-28.54-30.16s12.86-29.86,28.54-29.86,28.53,11.53,28.53,29.86S888.58,126.24,872.91,126.24Z"/>
    <path d="M1007.44,49.66H973.88V142.8h17.74V112.49h15.82c21.88,0,36.37-12.57,36.37-31.49C1043.81,62.67,1029.76,49.66,1007.44,49.66Zm-.74,46.57H991.62V65.92h15.08c12.27,0,18.63,5.77,18.63,15.08S1019,96.23,1006.7,96.23Z"/>
    <path d="M1102.2,48.47c-25.87,0-47,20-47,47.76s21.14,47.75,47,47.75,47-20,47-47.75S1128.08,48.47,1102.2,48.47Zm0,77.77c-15.67,0-28.53-11.83-28.53-30.16s12.86-29.86,28.53-29.86,28.54,11.53,28.54,29.86S1117.87,126.24,1102.2,126.24Z"/>
    <path d="M1232.45,79.23c0-17.3-14-29.57-36.37-29.57h-33.56V142.8h17.74v-34h10.94l19.67,34h20.69l-20.84-36.08C1224.17,102.58,1232.45,92.68,1232.45,79.23Zm-37.11,13.3h-15.08V65.92h15.08c12.27,0,18.63,5.17,18.63,13.31S1207.61,92.53,1195.34,92.53Z"/>
    <polygon points="1310.51 49.66 1241.32 49.66 1241.32 65.92 1267.05 65.92 1267.05 142.8 1284.79 142.8 1284.79 65.92 1310.51 65.92 1310.51 49.66"/>
    <path d="M1341.41,49.66l-33.86,93.14h19.22l7.1-19.37h32.82l7.1,19.37H1393l-33.86-93.14Zm-1.63,57.51,10.5-29,10.5,29Z"/>
    <polygon points="1424.05 126.53 1424.05 49.66 1406.31 49.66 1406.31 142.8 1469.14 142.8 1469.14 126.53 1424.05 126.53"/>
    <rect x="68.05" y="65.67" width="15.28" height="61.12" rx="1.91"/>
    <rect x="47.95" y="65.67" width="15.28" height="45.84" rx="1.91"/>
    <rect x="108.26" y="65.67" width="15.28" height="61.12" rx="1.91"/>
    <rect x="128.36" y="65.67" width="15.28" height="45.84" rx="1.91"/>
    <rect x="88.16" y="73.31" width="15.28" height="45.84" rx="1.91"/>
    <path d="M95.8,1.06A95.17,95.17,0,1,0,191,96.23,95.27,95.27,0,0,0,95.8,1.06Zm0,176.46a81.3,81.3,0,1,1,81.29-81.29A81.39,81.39,0,0,1,95.8,177.52Z"/>
</svg>